#!OML:ASF H:\MichaelJackson\Top Level 1\Subject 1\Session 1\male.ASF
:FULLY-SPECIFIED
:DEGREES
747
root 4.14624 16.7395 14.4623 -163.047 -8.82436 188.877
lowerback 2.37088 6.67975 -2.32413
upperback -1.46104 8.79083 -1.34248
thorax -2.95962 4.41232 -0.537563
lowerneck -6.49494 -8.55906 -1.26312
upperneck -1.99945 -11.5123 5.41921
head 0.869294 -5.76588 1.55183
rclavicle 4.21423e-014 -7.15625e-015
rhumerus 26.6529 39.7723 -66.7956
rradius 97.0919
rwrist -1.33575
rhand -20.9784 -20.4721
rfingers 7.12502
rthumb 5.39524 -770.383
lclavicle 4.21423e-014 -7.15625e-015
lhumerus -54.7502 -4.21182 75.2195
lradius 47.5355
lwrist 15.0945
lhand -28.6535 -3.94548
lfingers 7.12502
lthumb -2.01703 26.0247
rfemur -28.0384 -32.8289 11.093
rtibia 106.385
rfoot 13.9961 4.21432
rtoes 15.2162
lfemur -32.2229 0.759886 -15.3482
ltibia 45.334
lfoot -29.8944 7.91841
ltoes 4.28032
748
root 4.10681 16.6062 14.6587 -162.99 -6.75735 188.723
lowerback 2.6791 6.46865 -2.67856
upperback -1.30912 8.47782 -1.50765
thorax -2.99749 4.25776 -0.524978
lowerneck -6.36823 -8.65319 -1.45602
upperneck -2.08662 -11.6368 5.82657
head 0.865643 -5.83131 1.71226
rclavicle 6.48038e-014 -1.82882e-014
rhumerus 23.5497 42.4054 -69.8549
rradius 96.9335
rwrist -0.203654
rhand -19.2544 -19.2245
rfingers 7.12502
rthumb 7.05959 -769.087
lclavicle 6.48038e-014 -1.82882e-014
lhumerus -53.6039 -4.09418 77.4703
lradius 47.8509
lwrist 14.3907
lhand -29.284 -4.13036
lfingers 7.12502
lthumb -2.62598 25.8332
rfemur -28.1131 -33.015 12.8452
rtibia 104.634
rfoot 13.5798 3.35547
rtoes 15.2913
lfemur -33.8861 2.61779 -16.4325
ltibia 47.8681
lfoot -30.7259 8.51802
ltoes 4.39023
749
root 4.0667 16.455 14.8619 -163.028 -4.57838 188.626
lowerback 3.01931 6.28353 -2.97093
upperback -1.12704 8.19672 -1.68484
thorax -3.01046 4.11638 -0.558462
lowerneck -6.24625 -8.73679 -1.64149
upperneck -2.19233 -11.7486 6.21038
head 0.855103 -5.89205 1.86583
rclavicle 3.33958e-014 1.11319e-014
rhumerus 20.1089 44.7665 -73.1165
rradius 96.4773
rwrist 0.971849
rhand -17.7771 -18.1523
rfingers 7.12502
rthumb 8.48546 -767.962
lclavicle 3.33958e-014 1.11319e-014
lhumerus -52.5012 -4.35778 79.6448
lradius 48.4536
lwrist 13.9566
lhand -29.7329 -4.38371
lfingers 7.12502
lthumb -3.05947 25.5741
rfemur -28.1509 -33.1171 14.4801
rtibia 103.027
rfoot 13.4599 2.38537
rtoes 15.8943
lfemur -35.5546 4.58278 -17.4491
ltibia 50.3363
lfoot -31.3866 8.74706
ltoes 4.86623
750
root 4.01886 16.3437 15.0506 -163.144 -2.24277 188.58
lowerback 3.35945 6.13388 -3.20855
upperback -0.926159 7.96056 -1.88105
thorax -2.99375 3.99454 -0.639791
lowerneck -6.12193 -8.80708 -1.79985
upperneck -2.297 -11.8445 6.54736
head 0.839379 -5.94611 2.00189
rclavicle -7.55382e-015 2.8625e-014
rhumerus 16.3743 46.8227 -76.5508
rradius 95.7332
rwrist 2.13744
rhand -16.6745 -17.2941
rfingers 7.12502
rthumb 9.54937 -767.058
lclavicle -7.55382e-015 2.8625e-014
lhumerus -51.519 -4.97593 81.7024
lradius 49.374
lwrist 13.7527
lhand -29.9993 -4.72184
lfingers 7.12502
lthumb -3.31682 25.2321
rfemur -27.9354 -33.0942 16.05
rtibia 101.216
rfoot 13.6582 1.2257
rtoes 17.0552
lfemur -36.9621 6.6426 -18.4013
ltibia 52.5687
lfoot -32.0197 8.77153
ltoes 5.65235
751
root 3.96502 16.2447 15.2325 -163.307 0.27681 188.568
lowerback 3.66504 5.97039 -3.40768
upperback -0.727559 7.78526 -2.10377
thorax -2.95031 3.9318 -0.768427
lowerneck -5.98984 -8.86231 -1.9189
upperneck -2.37597 -11.9224 6.81546
head 0.822615 -5.99144 2.11094
rclavicle -1.19271e-014 1.43125e-014
rhumerus 12.405 48.5634 -80.1113
rradius 94.7319
rwrist 3.23112
rhand -16.0217 -16.6844
rfingers 7.12502
rthumb 10.1792 -766.418
lclavicle -1.19271e-014 1.43125e-014
lhumerus -50.7203 -5.87663 83.5947
lradius 50.6128
lwrist 13.6931
lhand -30.1116 -5.14826
lfingers 7.12502
lthumb -3.42519 24.804
rfemur -27.5716 -32.9914 17.4578
rtibia 99.3486
rfoot 14.0315 -0.059226
rtoes 18.711
lfemur -38.1764 8.7586 -19.3123
ltibia 54.5349
lfoot -32.5703 8.72522
ltoes 6.64964
752
root 3.9045 16.1579 15.4068 -163.481 2.98731 188.57
lowerback 3.9081 5.86726 -3.57911
upperback -0.551561 7.64305 -2.3575
thorax -2.88916 3.86643 -0.938776
lowerneck -5.84926 -8.90179 -1.99414
upperneck -2.40488 -11.9809 6.995
head 0.810377 -6.02616 2.18515
rclavicle 1.78906e-014 -1.35174e-013
rhumerus 8.27318 49.9991 -83.7336
rradius 93.5246
rwrist 4.19154
rhand -15.82 -16.3487
rfingers 7.12502
rthumb 10.3738 -766.073
lclavicle 1.78906e-014 -1.35174e-013
lhumerus -50.1431 -6.9499 85.2782
lradius 52.1381
lwrist 13.67
lhand -30.1155 -5.6521
lfingers 7.12502
lthumb -3.42897 24.3001
rfemur -27.0893 -32.8395 18.674
rtibia 97.3994
rfoot 14.4834 -1.4193
rtoes 20.6757
lfemur -39.1835 10.8767 -20.2074
ltibia 56.1341
lfoot -32.9882 8.73722
ltoes 7.74086
753
root 3.83704 16.0828 15.5731 -163.633 5.87544 188.567
lowerback 4.06962 5.78233 -3.73681
upperback -0.419048 7.52946 -2.63839
thorax -2.82273 3.81613 -1.13976
lowerneck -5.70483 -8.92538 -2.03153
upperneck -2.36576 -12.0187 7.07428
head 0.808463 -6.04843 2.22084
rclavicle -6.40087e-014 5.40694e-014
rhumerus 4.06158 51.158 -87.3363
rradius 92.1791
rwrist 4.96805
rhand -15.9957 -16.2889
rfingers 7.12502
rthumb 10.2043 -766.021
lclavicle -6.40087e-014 5.40694e-014
lhumerus -49.7942 -8.06598 86.7245
lradius 53.8848
lwrist 13.5847
lhand -30.0559 -6.20926
lfingers 7.12502
lthumb -3.37148 23.7438
rfemur -26.5178 -32.6719 19.689
rtibia 95.4023
rfoot 14.8579 -2.79269
rtoes 22.6753
lfemur -40.0512 12.9328 -21.107
ltibia 57.4571
lfoot -33.3178 8.9387
ltoes 8.81632
754
root 3.76285 16.0188 15.7322 -163.741 8.91121 188.554
lowerback 4.14335 5.70454 -3.88573
upperback -0.343193 7.42862 -2.9339
thorax -2.76341 3.77275 -1.3555
lowerneck -5.56397 -8.93368 -2.04301
upperneck -2.25353 -12.0353 7.05054
head 0.820195 -6.05725 2.21845
rclavicle -5.92378e-014 -2.22639e-014
rhumerus -0.14111 52.08 -90.8244
rradius 90.7723
rwrist 5.53204
rhand -16.4129 -16.4703
rfingers 7.12502
rthumb 9.80178 -766.222
lclavicle -5.92378e-014 -2.22639e-014
lhumerus -49.6516 -9.10072 87.9278
lradius 55.7651
lwrist 13.3799
lhand -29.9691 -6.7842
lfingers 7.12502
lthumb -3.28761 23.1702
rfemur -25.8959 -32.5185 20.518
rtibia 93.3714
rfoot 15.0566 -4.10444
rtoes 24.4171
lfemur -40.8286 14.864 -22.0183
ltibia 58.5287
lfoot -33.5456 9.40324
ltoes 9.79394
755
root 3.68242 15.9648 15.885 -163.794 12.0587 188.539
lowerback 4.13528 5.62537 -4.02066
upperback -0.326279 7.32799 -3.22374
thorax -2.71896 3.72944 -1.56837
lowerneck -5.43503 -8.92715 -2.04299
upperneck -2.0788 -12.03 6.93154
head 0.845076 -6.05235 2.18271
rclavicle -5.56597e-014 1.90833e-014
rhumerus -4.24244 52.8107 -94.0953
rradius 89.3815
rwrist 5.88135
rhand -16.8987 -16.8224
rfingers 7.12502
rthumb 9.33313 -766.596
lclavicle -5.56597e-014 1.90833e-014
lhumerus -49.6726 -9.9578 88.9046
lradius 57.6821
lwrist 13.0595
lhand -29.8714 -7.33817
lfingers 7.12502
lthumb -3.1933 22.6177
rfemur -25.2533 -32.3978 21.1959
rtibia 91.3201
rfoot 15.0273 -5.29448
rtoes 25.6434
lfemur -41.5585 16.6218 -22.9279
ltibia 59.3847
lfoot -33.6646 10.1551
ltoes 10.6522
756
root 3.59645 15.9199 16.0323 -163.791 15.2856 188.545
lowerback 4.05996 5.5411 -4.12753
upperback -0.359647 7.22173 -3.48429
thorax -2.68994 3.68244 -1.76264
lowerneck -5.32539 -8.90601 -2.04477
upperneck -1.86475 -12.0024 6.73578
head 0.879241 -6.03433 2.12202
rclavicle -2.46493e-014 1.74931e-014
rhumerus -8.14896 53.3979 -97.0477
rradius 88.0729
rwrist 6.04353
rhand -17.2821 -17.2511
rfingers 7.12502
rthumb 8.96315 -767.041
lclavicle -2.46493e-014 1.74931e-014
lhumerus -49.8062 -10.5828 89.6891
lradius 59.5457
lwrist 12.6876
lhand -29.7585 -7.82338
lfingers 7.12502
lthumb -3.08421 22.1341
rfemur -24.6029 -32.3154 21.7673
rtibia 89.2584
rfoot 14.7644 -6.34334
rtoes 26.1972
lfemur -42.2666 18.1833 -23.8027
ltibia 60.0636
lfoot -33.6762 11.1786
ltoes 11.4096
757
root 3.50576 15.8834 16.1749 -163.738 18.5703 188.602
lowerback 3.93523 5.45303 -4.19
upperback -0.426697 7.11109 -3.69508
thorax -2.66981 3.6315 -1.92717
lowerneck -5.24262 -9.09161 -2.03693
upperneck -1.6167 -11.9268 6.4908
head 0.923631 -5.80909 2.04643
rclavicle -3.02153e-014 -9.54166e-015
rhumerus -11.771 53.887 -99.5944
rradius 86.8935
rwrist 6.07223
rhand -17.4264 -17.6606
rfingers 7.12502
rthumb 8.82384 -767.456
lclavicle -3.02153e-014 -9.54166e-015
lhumerus -50.0029 -10.9653 90.3241
lradius 61.2835
lwrist 12.3722
lhand -29.6042 -8.19519
lfingers 7.12502
lthumb -2.93523 21.7644
rfemur -23.942 -32.2674 22.2724
rtibia 87.1918
rfoot 14.2947 -7.28362
rtoes 26.0209
lfemur -42.9564 19.5519 -24.6002
ltibia 60.5986
lfoot -33.5941 12.43
ltoes 12.1179
